<svg xmlns="http://www.w3.org/2000/svg" viewBox="0 0 91.01 38.95"><defs><style>.cls-1{fill:#fff;}</style></defs><g id="Capa_2" data-name="Capa 2"><g id="Capa_1-2" data-name="Capa 1"><path class="cls-1" d="M91,13a13.39,13.39,0,0,0-26.76,0V26A13.39,13.39,0,0,0,91,26Z"/><path class="cls-1" d="M58.89,13a13.39,13.39,0,0,0-26.77,0V26a13.39,13.39,0,0,0,26.77,0Z"/><path class="cls-1" d="M26.76,13A13.19,13.19,0,0,0,13.38,0,13.19,13.19,0,0,0,0,13V26A13.18,13.18,0,0,0,13.38,39,13.18,13.18,0,0,0,26.76,26Z"/></g></g></svg>