<svg xmlns="http://www.w3.org/2000/svg" viewBox="0 0 67.5 44.89"><defs><style>.cls-1{fill:none;stroke:#fff;stroke-linecap:round;stroke-miterlimit:10;stroke-width:1.5px;}.cls-2{fill:#fff;}</style></defs><g id="Capa_2" data-name="Capa 2"><g id="Capa_1-2" data-name="Capa 1"><rect class="cls-1" x="32.41" y="0.75" width="10.89" height="39.71" rx="2.24"/><rect class="cls-1" x="45.9" y="9.8" width="6.44" height="30.66" rx="2.24"/><rect class="cls-1" x="55.71" y="13.17" width="9.51" height="27.29" rx="2.24"/><path class="cls-1" d="M36.39,10.1h2.9a.78.78,0,0,1,.78.79v9.77a.78.78,0,0,1-.78.79h-2.9"/><line class="cls-1" x1="37.01" y1="6.12" x2="42.83" y2="6.12"/><line class="cls-1" x1="49.27" y1="15.31" x2="49.27" y2="36.17"/><line class="cls-1" x1="56.02" y1="31.87" x2="63.07" y2="31.87"/><line class="cls-1" x1="64.91" y1="21.45" x2="59.7" y2="21.45"/><line class="cls-1" x1="64.91" y1="17.46" x2="59.7" y2="17.46"/><line class="cls-1" x1="56.02" y1="36.17" x2="63.07" y2="36.17"/><line class="cls-1" x1="0.75" y1="44.14" x2="66.75" y2="44.14"/><path class="cls-2" d="M10.53,40.84a5.93,5.93,0,0,0,4.07-7.23l8.51-13.17a5.66,5.66,0,0,0,2.13.12,4,4,0,0,0,3.16-2.32,11.17,11.17,0,0,0,1.19-5.93.9.9,0,0,1,0-.23l-.18-.81c-.12-.27-.25-.53-.4-.85l-.24.33-2.37,3.67a1.18,1.18,0,0,1-1.83.4q-2-1.26-3.92-2.53a1.19,1.19,0,0,1-.4-1.83L22.7,6.82l.17-.28A4.36,4.36,0,0,0,20.54,7a10.06,10.06,0,0,0-4.63,3.87A4.16,4.16,0,0,0,16,15.44a8.88,8.88,0,0,0,.57.84L8.23,29.14a5.93,5.93,0,0,0-5.41,5.48A6,6,0,0,0,10.53,40.84ZM8.47,38.18c-.79-.5-1.57-1-2.34-1.51A.5.5,0,0,1,6,36.34c0-.92.08-1.85.14-2.77a.53.53,0,0,1,.22-.34c.81-.43,1.62-.84,2.45-1.24a.49.49,0,0,1,.39,0c.78.48,1.55,1,2.31,1.49a.49.49,0,0,1,.19.35c0,.93-.07,1.85-.12,2.78a.37.37,0,0,1-.15.26c-.86.46-1.73.9-2.66,1.38A.81.81,0,0,1,8.47,38.18Z"/></g></g></svg>