<svg xmlns="http://www.w3.org/2000/svg" viewBox="0 0 60.74 60.74"><defs><style>.cls-1{fill:#fff;}</style></defs><g id="Capa_2" data-name="Capa 2"><g id="Capa_1-2" data-name="Capa 1"><rect class="cls-1" x="16.79" y="22.84" width="5.87" height="18.89"/><path class="cls-1" d="M19.77,14.65a2.94,2.94,0,1,0-.08,5.88,2.95,2.95,0,1,0,.08-5.88Z"/><path class="cls-1" d="M37.34,22.42a6.78,6.78,0,0,0-5.83,3h-.12l-.27-2.63H26c.08,1.7.16,3.67.16,6V41.74h5.87V30.84a4.37,4.37,0,0,1,.19-1.47,3.23,3.23,0,0,1,3-2.2c2.12,0,3,1.66,3,4.1V41.74H44.1V30.57C44.1,25,41.21,22.42,37.34,22.42Z"/><path class="cls-1" d="M30.37,60.74A30.37,30.37,0,1,1,60.74,30.37,30.4,30.4,0,0,1,30.37,60.74ZM30.37,2A28.37,28.37,0,1,0,58.74,30.37,28.41,28.41,0,0,0,30.37,2Z"/></g></g></svg>