<svg xmlns="http://www.w3.org/2000/svg" viewBox="0 0 60.74 60.74"><defs><style>.cls-1{fill:#fff;}</style></defs><g id="Capa_2" data-name="Capa 2"><g id="Capa_1-2" data-name="Capa 1"><path class="cls-1" d="M30.37,60.74A30.37,30.37,0,1,1,60.74,30.37,30.4,30.4,0,0,1,30.37,60.74ZM30.37,2A28.37,28.37,0,1,0,58.74,30.37,28.41,28.41,0,0,0,30.37,2Z"/><path class="cls-1" d="M47.87,30.37a37.38,37.38,0,0,0-.6-8.26,4.42,4.42,0,0,0-3.78-3.45,117,117,0,0,0-13.11-.49,117.17,117.17,0,0,0-13.12.49,4.42,4.42,0,0,0-3.78,3.45,36.75,36.75,0,0,0-.62,8.26,37.48,37.48,0,0,0,.61,8.27,4.43,4.43,0,0,0,3.78,3.44,119.6,119.6,0,0,0,13.12.49,117,117,0,0,0,13.11-.49,4.43,4.43,0,0,0,3.78-3.44,36.8,36.8,0,0,0,.62-8.27Zm-11.2.72L31.8,33.9l-4.87,2.81A.83.83,0,0,1,25.69,36V24.75A.83.83,0,0,1,26.93,24l4.87,2.81,4.87,2.81A.83.83,0,0,1,36.67,31.09Z"/></g></g></svg>