<svg xmlns="http://www.w3.org/2000/svg" xmlns:xlink="http://www.w3.org/1999/xlink" viewBox="0 0 203.07 22.36"><defs><style>.cls-1{fill:none;}.cls-2{clip-path:url(#clip-path);}.cls-3{fill:#fff;}</style><clipPath id="clip-path" transform="translate(0 0)"><rect class="cls-1" width="203.07" height="22.36"/></clipPath></defs><g id="Capa_2" data-name="Capa 2"><g id="Capa_1-2" data-name="Capa 1"><g class="cls-2"><path class="cls-3" d="M52,7.49a7.64,7.64,0,0,0-15.28,0V14.9A7.64,7.64,0,0,0,52,14.9Z" transform="translate(0 0)"/><path class="cls-3" d="M33.62,7.49a7.64,7.64,0,0,0-15.28,0V14.9a7.64,7.64,0,0,0,15.28,0Z" transform="translate(0 0)"/><path class="cls-3" d="M15.28,7.49A7.53,7.53,0,0,0,7.64.07,7.53,7.53,0,0,0,0,7.49V14.9a7.53,7.53,0,0,0,7.64,7.41,7.53,7.53,0,0,0,7.64-7.41Z" transform="translate(0 0)"/><path class="cls-3" d="M79.12,22.33H74.61V10.52c.29-4-4.56-4-4.35.26V22.33H65.75V4h4.44s.06,1.12.07,1.11c2.94-2.7,6.39-1.83,8,.86h0A6,6,0,0,1,83,3.47c3.41,0,5.16,3.26,5,6.64V22.33H83.48V10.52c.29-4-4.57-4-4.36.26Z" transform="translate(0 0)"/><path class="cls-3" d="M135.78,22.3c-1.44,0-7.5,0-7.76-9.24-.1-3.29,1.4-9.7,7.76-9.62,1.71,0,6.23.67,7,7.07h-4.45c-.22-1.64-.95-3.43-2.78-3.43-2.38,0-3.12,2.63-3,5.94s.81,5.61,3.15,5.58c1.67,0,2.73-1.9,2.73-3.55h4.49c-.71,5.59-3.78,7.22-7.09,7.25" transform="translate(0 0)"/><path class="cls-3" d="M98.55,13.56l-.07,2c-.38,2.09-1.42,3-3,3a1.91,1.91,0,0,1-1.8-1.81c0-2.48,2.62-2.35,4.88-3.22m4.34-3.51c.26-6-4.13-6.59-6.3-6.65S89.66,4.47,90,9.92h4.29c-.35-3.31,3.42-3.2,4-2,.23.49.57,2.12-1.67,2.68-1.92.48-6.94,1-7.38,5.52-.27,2.79,1,6.25,5.86,6.25A4.69,4.69,0,0,0,98.64,21a3,3,0,0,0,.23.89h4.4a10.85,10.85,0,0,1-.39-2.89Z" transform="translate(0 0)"/><path class="cls-3" d="M178.87,10.75V22.3h-4.51V4h4.46s0,1.12.05,1.11c4.14-3.81,9.32-.52,8.87,5V22.3h-4.52V10.49c.3-4-4.56-4-4.35.26" transform="translate(0 0)"/><path class="cls-3" d="M148.78,10.75V22.3h-4.51V0h4.51s0,5.1,0,5.09c4.14-3.81,9.32-.52,8.87,5V22.3h-4.52V10.49c.3-4-4.56-4-4.35.26" transform="translate(0 0)"/><path class="cls-3" d="M122.44,13.6l-.07,2c-.38,2.09-1.41,3-3,3a1.9,1.9,0,0,1-1.8-1.81c0-2.47,2.62-2.34,4.87-3.22m4.34-3.51c.27-6-4.12-6.59-6.3-6.64s-6.93,1.07-6.6,6.51h4.3c-.35-3.31,3.41-3.19,3.95-2,.23.49.57,2.11-1.67,2.67-1.92.48-6.93,1-7.38,5.53-.27,2.78,1,6.24,5.86,6.24a4.71,4.71,0,0,0,3.6-1.31,3.3,3.3,0,0,0,.22.89h4.41a10.57,10.57,0,0,1-.4-2.88Z" transform="translate(0 0)"/><path class="cls-3" d="M168.28,13.6l-.07,2c-.38,2.09-1.41,3-3,3a1.91,1.91,0,0,1-1.8-1.81c0-2.47,2.63-2.34,4.88-3.22m4.34-3.51c.26-6-4.13-6.59-6.3-6.64s-6.93,1.07-6.6,6.51H164c-.35-3.31,3.41-3.19,3.95-2,.23.49.57,2.11-1.67,2.67-1.92.48-6.93,1-7.38,5.53-.27,2.78,1,6.24,5.86,6.24a4.71,4.71,0,0,0,3.6-1.31,3.3,3.3,0,0,0,.22.89H173a10.57,10.57,0,0,1-.4-2.88Z" transform="translate(0 0)"/><path class="cls-3" d="M198.44,13.6l-.07,2c-.37,2.09-1.38,3-2.94,3a1.89,1.89,0,0,1-1.77-1.81c0-2.47,2.57-2.34,4.78-3.22m4.25-3.51c.26-6-4-6.59-6.17-6.64s-6.79,1.07-6.46,6.51h4.2c-.34-3.31,3.35-3.19,3.88-2,.22.49.56,2.11-1.64,2.67-1.88.48-6.79,1-7.23,5.53-.27,2.78,1,6.24,5.74,6.24a4.53,4.53,0,0,0,3.52-1.31,3.73,3.73,0,0,0,.22.89h4.32a11.29,11.29,0,0,1-.39-2.88Z" transform="translate(0 0)"/><path class="cls-3" d="M105.63,0h4.45V3.9h2.12V7.73h-2.11v9.94c0,1,1,1.36,2.11,1.18v3.21c-2.69.54-6.58.22-6.58-3.24V7.73h-2V3.9h2Z" transform="translate(0 0)"/></g></g></g></svg>