<svg xmlns="http://www.w3.org/2000/svg" xmlns:xlink="http://www.w3.org/1999/xlink" viewBox="0 0 95 56.4"><defs><style>.cls-1{fill:none;}.cls-2{clip-path:url(#clip-path);}.cls-3{clip-path:url(#clip-path-2);}.cls-4{fill:#fff;}.cls-5{fill:#bd0034;}.cls-6{fill:#1a237b;}</style><clipPath id="clip-path" transform="translate(20.5 1.4)"><circle class="cls-1" cx="27" cy="27" r="27"/></clipPath><clipPath id="clip-path-2" transform="translate(20.5 1.4)"><rect class="cls-1" x="-20.5" y="-1.4" width="95" height="56.4"/></clipPath></defs><g id="Capa_2" data-name="Capa 2"><g id="Capa_1-2" data-name="Capa 1"><g class="cls-2"><g id="UNITED_KINGDOM" data-name="UNITED KINGDOM"><g class="cls-3"><rect class="cls-4" width="95" height="56.4"/><polygon class="cls-5" points="63.61 20.39 95 2.51 95 0 92.83 0 57.05 20.39 63.61 20.39"/><polygon class="cls-5" points="62.13 37.14 95 55.87 95 52.13 68.7 37.14 62.13 37.14"/><polygon class="cls-5" points="0 4.29 28.12 20.39 34.69 20.39 0 0.55 0 4.29"/><polygon class="cls-5" points="33.2 37.14 0 56.08 0 56.4 6 56.4 39.77 37.14 33.2 37.14"/><polygon class="cls-6" points="88.5 0 55.24 0 55.24 18.96 88.5 0"/><polygon class="cls-6" points="40.55 0 7.42 0 40.55 18.96 40.55 0"/><polygon class="cls-6" points="95 20.39 95 7.45 72.44 20.39 95 20.39"/><polygon class="cls-6" points="95 49.94 95 37.14 72.44 37.14 95 49.94"/><polygon class="cls-6" points="9.3 56.4 40.55 56.4 40.55 38.58 9.3 56.4"/><polygon class="cls-6" points="55.24 56.4 86.59 56.4 55.24 38.58 55.24 56.4"/><polygon class="cls-6" points="0 37.14 0 50.52 23.35 37.14 0 37.14"/><polygon class="cls-6" points="0 20.39 23.35 20.39 0 7 0 20.39"/><polygon class="cls-5" points="43.49 0 43.49 23.74 0 23.74 0 33.8 43.49 33.8 43.49 56.4 52.3 56.4 52.3 33.8 95 33.8 95 23.74 52.3 23.74 52.3 0 43.49 0"/></g></g></g></g></g></svg>