<svg xmlns="http://www.w3.org/2000/svg" viewBox="0 0 61.84 43.08"><defs><style>.cls-1{fill:#1b365d;opacity:0.4;}</style></defs><g id="Capa_2" data-name="Capa 2"><g id="Capa_1-2" data-name="Capa 1"><path class="cls-1" d="M61.83,21.54c0-4.8,0-9.91-1.07-14.6A7.78,7.78,0,0,0,54.09.86,208,208,0,0,0,30.93,0,208,208,0,0,0,7.77.86,7.8,7.8,0,0,0,1.09,6.94C0,11.61,0,16.74,0,21.54s0,9.92,1.08,14.6a7.81,7.81,0,0,0,6.68,6.08,210.39,210.39,0,0,0,23.16.86,207.86,207.86,0,0,0,23.15-.86,7.83,7.83,0,0,0,6.69-6.08c1.08-4.66,1.08-9.77,1.08-14.6ZM42,22.8l-8.59,5-8.6,5a1.46,1.46,0,0,1-2.19-1.27V11.61a1.46,1.46,0,0,1,2.19-1.26l8.6,5,8.59,5A1.46,1.46,0,0,1,42,22.8Z"/></g></g></svg>