<svg xmlns="http://www.w3.org/2000/svg" viewBox="0 0 155.5 66.55"><defs><style>.cls-1{fill:#fff;}</style></defs><g id="Capa_2" data-name="Capa 2"><g id="Capa_1-2" data-name="Capa 1"><path class="cls-1" d="M155.5,22.18C155.5,9.94,145.26,0,132.63,0s-22.86,9.94-22.86,22.18V44.36c0,12.26,10.24,22.19,22.86,22.19s22.87-9.93,22.87-22.19Z"/><path class="cls-1" d="M100.61,22.18C100.61,9.94,90.37,0,77.75,0S54.88,9.94,54.88,22.18V44.36c0,12.26,10.24,22.19,22.87,22.19s22.86-9.93,22.86-22.19Z"/><path class="cls-1" d="M45.72,22.18C45.72,9.94,35.49,0,22.86,0S0,9.94,0,22.18V44.36C0,56.62,10.24,66.55,22.86,66.55s22.86-9.93,22.86-22.19Z"/></g></g></svg>